<svg xmlns="http://www.w3.org/2000/svg" viewBox="0 0 867.72 722.44"><defs><style>.cls-1,.cls-2,.cls-6,.cls-8{fill:#fff;}.cls-2{stroke:#231f20;stroke-width:10px;}.cls-2,.cls-6,.cls-7{stroke-miterlimit:10;}.cls-3{fill:#808184;}.cls-4{fill:#595a5c;}.cls-5{fill:#03a550;}.cls-6,.cls-8{stroke:#1d76bb;}.cls-6{stroke-width:17px;}.cls-7{fill:#2d368f;stroke:#fff;stroke-width:13px;}.cls-8{stroke-linejoin:round;stroke-width:5px;}</style></defs><g id="Layer_3" data-name="Layer 3"><circle class="cls-1" cx="437.01" cy="361.22" r="361.22"/></g><g id="Layer_1" data-name="Layer 1"><circle class="cls-2" cx="437.01" cy="361.22" r="304.34"/></g><g id="Layer_2" data-name="Layer 2"><rect class="cls-3" x="3.5" y="314.25" width="201.6" height="27.13" rx="3.5"/><path class="cls-1" d="M264.6,456.53v20.13H70V456.53H264.6m0-7H70a7,7,0,0,0-7,7v20.13a7,7,0,0,0,7,7H264.6a7,7,0,0,0,7-7V456.53a7,7,0,0,0-7-7Z" transform="translate(-62.99 -138.78)"/><polygon class="cls-3" points="239.74 327.81 196.35 352.86 196.35 302.77 239.74 327.81"/><rect class="cls-4" x="38.55" y="381.06" width="201.6" height="27.13" rx="3.5"/><path class="cls-1" d="M299.65,523.34v20.13H105V523.34H299.65m0-7H105a7,7,0,0,0-7,7v20.13a7,7,0,0,0,7,7H299.65a7,7,0,0,0,7-7V523.34a7,7,0,0,0-7-7Z" transform="translate(-62.99 -138.78)"/><polygon class="cls-4" points="274.79 394.63 231.41 419.68 231.41 369.58 274.79 394.63"/><path class="cls-5" d="M877.32,494.14a2.49,2.49,0,0,1-2.5-2.5V479.16H688a2.5,2.5,0,0,1-2.5-2.5V456.53A2.5,2.5,0,0,1,688,454H874.82V441.55a2.51,2.51,0,0,1,1.25-2.17,2.54,2.54,0,0,1,1.25-.33,2.51,2.51,0,0,1,1.25.33L922,464.43a2.5,2.5,0,0,1,0,4.33l-43.39,25.05A2.51,2.51,0,0,1,877.32,494.14Z" transform="translate(-62.99 -138.78)"/><path class="cls-1" d="M877.32,441.55l43.39,25-43.39,25.05v-15H688V456.53H877.32v-15m0-5a5,5,0,0,0-5,5v10H688a5,5,0,0,0-5,5v20.13a5,5,0,0,0,5,5H872.32v10a5,5,0,0,0,5,5,4.93,4.93,0,0,0,2.5-.67l43.39-25.05a5,5,0,0,0,0-8.66l-43.39-25a4.93,4.93,0,0,0-2.5-.67Z" transform="translate(-62.99 -138.78)"/><polygon class="cls-5" points="811.83 407.19 622.48 407.19 622.48 382.06 811.83 382.06 811.83 365.25 862.72 394.63 811.83 424 811.83 407.19"/><path class="cls-1" d="M877.32,508.36l43.39,25-43.39,25v-15H688V523.34H877.32v-15m-5-8.66v18.64H683v30.13H872.32v18.64l7.5-4.33,43.39-25,7.5-4.33-7.5-4.33L879.82,504l-7.5-4.33Z" transform="translate(-62.99 -138.78)"/><rect class="cls-6" x="395.69" y="190" width="82.63" height="203.48" rx="41.32"/><circle class="cls-7" cx="437.01" cy="385.33" r="105.11"/><path class="cls-8" d="M527.59,507.24a27.59,27.59,0,1,0-37.2,25.87l-2.89,33.31h25l-2.18-33.59A27.6,27.6,0,0,0,527.59,507.24Z" transform="translate(-62.99 -138.78)"/></g></svg>