<svg xmlns="http://www.w3.org/2000/svg" viewBox="0 0 1000 1000"><defs><style>.cls-1,.cls-3,.cls-6,.cls-8{fill:#fff;}.cls-1{stroke:#231f20;stroke-width:10px;}.cls-1,.cls-6,.cls-7{stroke-miterlimit:10;}.cls-2{fill:#808184;}.cls-4{fill:#595a5c;}.cls-5{fill:#03a550;}.cls-6,.cls-8{stroke:#1d76bb;}.cls-6{stroke-width:17px;}.cls-7{fill:#2d368f;stroke:#fff;stroke-width:13px;}.cls-8{stroke-linejoin:round;stroke-width:5px;}</style></defs><g id="Layer_2" data-name="Layer 2"><circle class="cls-1" cx="505.34" cy="500" r="349.39"/><rect class="cls-2" x="8.18" y="446.59" width="230.41" height="30.11" rx="3.5"/><path class="cls-3" d="M235.09,450.09V473.2H11.68V450.09H235.09m0-7H11.68a7,7,0,0,0-7,7V473.2a7,7,0,0,0,7,7H235.09a7,7,0,0,0,7-7V450.09a7,7,0,0,0-7-7Z"/><polygon class="cls-2" points="278.87 461.65 229.06 490.4 229.06 432.89 278.87 461.65"/><rect class="cls-4" x="48.42" y="523.3" width="230.41" height="30.11" rx="3.5"/><path class="cls-3" d="M275.33,526.8v23.11H51.92V526.8H275.33m0-7H51.92a7,7,0,0,0-7,7v23.11a7,7,0,0,0,7,7H275.33a7,7,0,0,0,7-7V526.8a7,7,0,0,0-7-7Z"/><polygon class="cls-4" points="319.11 538.35 269.3 567.11 269.3 509.6 319.11 538.35"/><path class="cls-5" d="M938.52,492.9a2.49,2.49,0,0,1-2.5-2.5V475.7H721.13a2.49,2.49,0,0,1-2.5-2.5V450.09a2.5,2.5,0,0,1,2.5-2.5H936v-14.7a2.47,2.47,0,0,1,1.25-2.16,2.4,2.4,0,0,1,1.25-.34,2.45,2.45,0,0,1,1.25.34l49.8,28.75a2.5,2.5,0,0,1,1.25,2.17,2.47,2.47,0,0,1-1.25,2.16l-49.8,28.76A2.54,2.54,0,0,1,938.52,492.9Z"/><path class="cls-3" d="M938.52,432.89l49.8,28.76-49.8,28.75V473.2H721.13V450.09H938.52v-17.2m0-5a5,5,0,0,0-5,5v12.2H721.13a5,5,0,0,0-5,5V473.2a5,5,0,0,0,5,5H933.52v12.2a5,5,0,0,0,2.5,4.33,4.93,4.93,0,0,0,2.5.67,5,5,0,0,0,2.5-.67L990.82,466a5,5,0,0,0,0-8.66L941,428.56a5.09,5.09,0,0,0-2.5-.67Z"/><polygon class="cls-5" points="936.02 552.41 718.63 552.41 718.63 524.3 936.02 524.3 936.02 505.27 993.32 538.35 936.02 571.44 936.02 552.41"/><path class="cls-3" d="M938.52,509.6l49.8,28.75-49.8,28.76v-17.2H721.13V526.8H938.52V509.6m-5-8.66V521.8H716.13v33.11H933.52v20.86l7.5-4.33,49.8-28.76,7.5-4.33-7.5-4.33L941,505.27l-7.5-4.33Z"/><rect class="cls-6" x="457.91" y="303.43" width="94.86" height="233.6" rx="41.32"/><circle class="cls-7" cx="505.34" cy="527.68" r="120.67"/><path class="cls-8" d="M537,508.32A31.67,31.67,0,1,0,494.3,538L491,576.25h28.7l-2.51-38.56A31.68,31.68,0,0,0,537,508.32Z"/></g></svg>